<?xml version="1.0" standalone="no"?>
<!DOCTYPE svg PUBLIC "-//W3C//DTD SVG 20010904//EN"
 "http://www.w3.org/TR/2001/REC-SVG-20010904/DTD/svg10.dtd">
<svg version="1.0" xmlns="http://www.w3.org/2000/svg"
 width="500.000000pt" height="500.000000pt" viewBox="0 0 500.000000 500.000000"
 preserveAspectRatio="xMidYMid meet">
<metadata>
Created by potrace 1.14, written by Peter Selinger 2001-2017
</metadata>
<g transform="translate(0.000000,500.000000) scale(0.100000,-0.100000)"
fill="#000000" stroke="none">
<path d="M2562 4859 c-2 -52 -30 -89 -66 -89 -36 0 -38 25 -5 59 29 31 25 40
-10 22 -23 -13 -57 -89 -45 -100 5 -4 29 -6 54 -3 62 5 82 34 77 105 l-3 52
-2 -46z"/>
<path d="M2580 4763 c-14 -9 -26 -17 -28 -19 -2 -1 3 -13 11 -26 9 -12 29 -68
46 -123 18 -55 41 -131 53 -169 14 -46 32 -79 54 -102 40 -39 40 -39 -40 -195
-90 -176 -109 -209 -116 -209 -9 0 4 -85 23 -145 9 -27 26 -83 37 -124 15 -52
24 -71 32 -63 7 7 8 24 1 54 -20 86 -6 232 28 300 12 24 11 58 -1 58 -5 0 -10
-12 -10 -27 -1 -24 -2 -25 -11 -11 -11 20 -2 83 15 101 6 7 31 50 54 95 39 75
42 88 36 130 -6 42 -30 94 -59 132 -14 18 -25 48 -60 165 -15 50 -34 100 -42
113 -13 21 -13 25 0 35 9 7 12 19 8 30 -6 16 -8 16 -31 0z m67 -865 c-3 -8 -6
-5 -6 6 -1 11 2 17 5 13 3 -3 4 -12 1 -19z"/>
<path d="M1826 4656 c18 -8 35 -19 38 -25 4 -6 19 -11 34 -11 25 0 24 2 -17
25 -23 14 -53 25 -65 25 -17 -1 -15 -3 10 -14z"/>
<path d="M1928 4603 c7 -3 16 -2 19 1 4 3 -2 6 -13 5 -11 0 -14 -3 -6 -6z"/>
<path d="M3548 4503 c7 -3 16 -2 19 1 4 3 -2 6 -13 5 -11 0 -14 -3 -6 -6z"/>
<path d="M3116 4441 c-3 -4 31 -26 76 -49 68 -35 84 -39 102 -30 21 12 21 12
1 18 -11 3 -38 14 -60 24 -79 37 -113 47 -119 37z"/>
<path d="M3661 4376 c-7 -8 -26 -18 -42 -21 -16 -4 -29 -11 -29 -16 0 -5 -7
-9 -16 -9 -13 0 -14 3 -5 14 9 11 8 15 -5 20 -10 4 -20 2 -23 -3 -3 -5 -27 -8
-53 -6 -34 2 -45 0 -42 -9 6 -16 -60 -14 -99 2 -37 16 -42 15 -23 -3 30 -30
79 -44 125 -35 24 4 57 4 74 -1 22 -6 40 -4 64 8 19 9 55 15 79 15 46 -2 52 5
34 39 -13 23 -23 24 -39 5z"/>
<path d="M3600 4370 c0 -5 5 -10 10 -10 6 0 10 5 10 10 0 6 -4 10 -10 10 -5 0
-10 -4 -10 -10z"/>
<path d="M2521 4271 c-1 -31 -8 -52 -23 -68 -12 -13 -17 -23 -12 -22 5 0 20
13 32 30 21 26 23 34 14 67 l-10 37 -1 -44z"/>
<path d="M1080 4199 c0 -5 5 -7 10 -4 6 3 10 8 10 11 0 2 -4 4 -10 4 -5 0 -10
-5 -10 -11z"/>
<path d="M1688 4183 c7 -3 16 -2 19 1 4 3 -2 6 -13 5 -11 0 -14 -3 -6 -6z"/>
<path d="M3654 4170 c-17 -10 -40 -20 -50 -23 -13 -3 -11 -5 9 -6 15 0 27 -5
27 -11 0 -22 26 -7 47 25 25 39 15 44 -33 15z"/>
<path d="M1763 4143 c9 -2 23 -2 30 0 6 3 -1 5 -18 5 -16 0 -22 -2 -12 -5z"/>
<path d="M3222 4132 c-9 -6 -5 -12 13 -20 14 -7 32 -12 39 -12 7 0 26 -6 42
-14 48 -24 128 -31 143 -12 16 19 11 21 -94 40 -11 2 -38 7 -60 11 -22 4 -47
9 -55 11 -8 2 -21 0 -28 -4z"/>
<path d="M1135 4118 c-84 -11 -115 -23 -115 -42 0 -25 28 -39 66 -31 l37 6 -6
-50 c-4 -38 -3 -51 7 -51 8 0 12 16 13 48 1 73 10 95 36 87 12 -4 46 -6 74 -5
42 1 69 -6 130 -35 89 -42 143 -80 143 -100 0 -10 12 -12 53 -8 50 5 55 4 80
-27 15 -17 25 -36 21 -41 -8 -14 -26 1 -20 17 3 8 2 14 -3 14 -9 0 -19 -60
-13 -78 2 -7 17 -5 40 5 20 9 59 17 86 19 27 2 58 6 68 10 10 3 18 1 18 -5 0
-6 9 -8 23 -3 44 14 138 0 157 -23 16 -19 18 -164 2 -170 -8 -3 -11 -13 -7
-25 3 -11 -2 -36 -11 -56 -15 -30 -15 -37 -3 -45 8 -5 19 -7 25 -5 6 2 16 -5
23 -15 6 -11 16 -17 21 -14 5 3 13 -12 16 -35 l7 -40 18 35 c11 19 19 42 19
50 0 8 7 15 15 15 17 0 21 26 5 32 -5 2 -12 48 -14 103 -3 55 -2 89 0 75 3
-14 10 -29 15 -34 5 -6 9 -31 9 -57 0 -26 5 -51 10 -54 20 -12 11 -122 -15
-191 -14 -36 -25 -68 -25 -71 0 -13 33 31 48 64 l16 38 4 -29 c2 -16 -1 -39
-6 -50 -6 -12 -21 -50 -35 -86 -32 -83 -47 -88 -47 -16 0 56 -13 106 -28 106
-4 0 -17 -7 -28 -16 -13 -11 -15 -17 -6 -20 14 -7 16 -40 2 -49 -5 -3 -10 -24
-10 -46 0 -22 -4 -38 -9 -35 -5 3 -11 -12 -15 -34 -4 -24 -12 -40 -20 -40 -23
0 -26 -27 -6 -45 16 -14 17 -21 7 -37 -9 -16 -9 -22 1 -25 8 -3 12 -31 12 -91
0 -48 7 -109 15 -137 l15 -50 -5 65 c-11 153 1 314 25 330 5 3 10 16 12 30 2
14 3 -56 2 -155 -1 -99 0 -162 3 -140 2 22 8 44 13 50 5 6 12 42 16 80 3 39
15 102 26 140 11 39 22 80 25 93 3 12 9 25 14 28 5 3 9 16 9 30 0 13 5 24 10
24 6 0 10 8 10 18 0 10 9 35 20 57 11 22 20 50 20 62 0 13 5 23 11 23 12 0 7
-191 -7 -274 -4 -25 -3 -36 3 -33 16 10 26 91 28 209 1 59 4 110 7 113 3 3 11
-1 17 -9 11 -13 21 -10 78 20 35 18 71 34 78 34 7 0 15 -15 18 -32 5 -32 15
-68 39 -145 14 -46 23 -253 10 -253 -4 0 -15 -23 -22 -51 -8 -27 -18 -52 -22
-55 -4 -3 -8 -20 -8 -39 0 -19 -5 -37 -10 -40 -13 -8 -13 -155 0 -155 6 0 10
27 10 62 0 34 5 78 11 97 6 20 15 52 21 71 5 19 13 44 17 55 37 91 44 202 20
296 -7 27 -10 52 -6 55 11 11 37 -17 37 -40 1 -19 2 -19 15 5 15 27 52 41 87
31 10 -2 17 -10 14 -17 -2 -6 0 -18 5 -26 6 -10 9 -7 9 14 0 15 5 27 10 27 6
0 10 -9 10 -19 0 -11 5 -23 10 -26 6 -3 10 -15 10 -26 0 -10 5 -19 10 -19 6 0
10 11 10 25 0 14 -4 25 -10 25 -5 0 -10 9 -10 20 0 11 5 20 10 20 6 0 10 -7
10 -15 0 -8 5 -15 10 -15 6 0 10 7 10 15 0 8 -4 15 -9 15 -18 0 -19 40 -1 50
37 20 83 11 127 -24 79 -62 110 -104 166 -225 l12 -23 10 26 11 27 11 -23 c7
-13 16 -36 22 -53 10 -27 11 -24 8 25 -4 70 -42 148 -107 219 -36 39 -46 57
-37 63 39 25 95 -11 129 -84 26 -55 68 -205 68 -245 0 -16 4 -21 15 -17 8 4
15 17 15 30 0 14 6 24 15 24 8 0 12 -6 9 -14 -3 -7 2 -16 10 -19 12 -5 14 -12
7 -29 -4 -13 -6 -28 -4 -35 2 -6 -1 -14 -6 -18 -13 -7 -15 -75 -2 -75 4 0 16
36 25 80 10 44 24 87 32 95 9 8 10 16 4 20 -7 4 -6 13 1 26 6 11 7 28 3 37 -4
9 -9 22 -9 27 -1 6 -5 17 -8 25 -17 40 -46 145 -41 150 7 7 29 -23 62 -85 26
-47 27 -57 27 -185 -1 -100 -5 -144 -16 -170 -11 -24 -16 -63 -15 -116 1 -74
4 -84 40 -144 34 -55 40 -76 44 -134 4 -70 -9 -116 -45 -154 -15 -16 -18 0 -4
26 5 9 12 36 16 60 6 35 4 42 -9 42 -12 0 -16 -10 -16 -38 0 -29 -7 -45 -30
-67 -16 -16 -30 -35 -30 -42 0 -7 -9 -29 -21 -49 -11 -20 -18 -44 -16 -53 2
-11 10 -3 24 24 21 41 63 86 63 69 0 -6 -5 -15 -12 -22 -20 -20 -27 -122 -11
-164 8 -20 20 -39 27 -41 14 -6 82 -2 188 8 65 7 68 6 105 -24 21 -17 41 -31
45 -31 19 0 5 31 -23 53 l-31 24 51 21 c72 32 124 29 164 -8 36 -34 46 -33 23
3 -20 30 -57 47 -101 47 -48 0 -46 26 2 47 36 15 97 14 136 -2 17 -7 17 -6 0
29 -10 19 -23 36 -30 36 -6 0 -20 16 -32 35 -17 29 -26 35 -55 35 -19 0 -41
-7 -50 -15 -15 -16 -36 -20 -36 -7 1 14 38 52 52 52 8 0 19 5 26 12 8 8 15 8
27 -2 11 -9 19 -10 26 -3 7 7 -15 18 -68 35 -58 19 -81 31 -90 49 -13 24 -13
24 -13 -8 0 -18 -11 -49 -25 -69 -14 -20 -25 -49 -25 -64 0 -30 -23 -56 -40
-45 -7 4 -7 12 0 25 5 10 10 32 10 48 0 16 7 35 15 42 24 20 28 72 10 118 -23
57 -35 44 -19 -20 13 -50 13 -54 -11 -90 -14 -21 -25 -48 -25 -62 0 -13 -7
-29 -15 -36 -12 -10 -15 -10 -15 4 0 9 4 16 10 16 6 0 8 33 6 88 -5 91 -26
155 -69 209 -12 15 -32 47 -45 70 -24 45 -24 82 3 198 17 72 18 78 5 70 -16
-10 -50 -135 -49 -184 0 -53 24 -118 57 -156 60 -69 86 -161 59 -212 -8 -15
-20 -40 -27 -55 -17 -36 -34 -25 -25 16 16 68 9 132 -20 192 -16 33 -39 73
-52 91 -36 49 -41 133 -13 224 29 96 35 196 17 286 -10 51 -11 75 -3 83 7 7 7
16 -1 30 -10 16 -8 23 16 49 16 17 36 31 43 31 8 0 23 9 33 20 23 25 123 80
146 80 9 0 33 18 53 41 30 32 35 43 25 55 -16 19 -36 18 -106 -10 -33 -13 -85
-29 -114 -37 -30 -7 -65 -20 -79 -30 -71 -47 -113 -61 -164 -55 -39 5 -68 0
-126 -18 -137 -44 -157 -48 -201 -42 -129 20 -133 19 -180 -11 -24 -17 -59
-35 -76 -42 -36 -15 -83 -8 -83 12 0 21 44 57 68 57 12 0 26 8 31 19 21 38
-24 43 -59 6 -35 -37 -60 -33 -60 9 0 39 11 49 51 48 21 0 26 3 22 15 -8 21
-121 14 -154 -10 -13 -9 -46 -33 -73 -52 -26 -19 -51 -35 -55 -35 -3 0 -23 14
-44 31 -34 28 -37 35 -37 80 0 28 5 59 10 69 12 23 8 33 -58 139 -56 91 -69
98 -189 104 -60 3 -133 11 -163 16 -30 6 -82 14 -115 17 -33 3 -80 13 -104 20
-46 15 -157 69 -177 85 -7 5 -46 28 -89 49 -82 43 -99 45 -230 28z m2313 -625
c6 -19 -25 -16 -32 3 -4 11 -1 14 11 12 9 -2 18 -9 21 -15z m-913 -62 c3 -5 1
-12 -5 -16 -5 -3 -10 1 -10 9 0 18 6 21 15 7z m698 -63 c4 -10 3 -18 -1 -18
-8 0 -32 48 -32 64 0 12 24 -22 33 -46z m43 -133 c8 -31 0 -42 -20 -26 -14 12
-11 51 5 51 5 0 11 -11 15 -25z m-1256 -144 c0 -6 -4 -13 -10 -16 -5 -3 -10 1
-10 9 0 9 5 16 10 16 6 0 10 -4 10 -9z m1697 -604 c-21 -18 -41 -45 -45 -61
-4 -16 -19 -36 -32 -45 -22 -15 -23 -15 -12 6 7 12 12 37 12 57 0 42 37 76 84
76 l31 -1 -38 -32z m98 -70 c24 -18 13 -34 -24 -35 -35 -1 -68 -23 -96 -65
-36 -54 -69 -72 -138 -72 -82 0 -117 21 -117 70 0 34 13 47 23 23 3 -7 6 -3 6
10 1 16 -5 22 -21 23 -18 1 -17 3 7 8 26 6 32 3 42 -19 26 -59 107 -78 169
-39 19 11 37 31 40 44 9 35 32 53 85 64 3 0 13 -5 24 -12z m-414 -161 c25 -42
24 -61 -2 -35 -13 13 -23 38 -25 63 -2 22 -1 32 2 22 3 -10 15 -33 25 -50z
m-64 17 c-3 -10 -5 -4 -5 12 0 17 2 24 5 18 2 -7 2 -21 0 -30z m131 -43 c10
-17 10 -20 -3 -20 -12 0 -35 28 -35 44 0 11 26 -5 38 -24z"/>
<path d="M1818 4123 c7 -3 16 -2 19 1 4 3 -2 6 -13 5 -11 0 -14 -3 -6 -6z"/>
<path d="M1863 4103 c9 -2 23 -2 30 0 6 3 -1 5 -18 5 -16 0 -22 -2 -12 -5z"/>
<path d="M1928 4083 c7 -3 16 -2 19 1 4 3 -2 6 -13 5 -11 0 -14 -3 -6 -6z"/>
<path d="M3544 4030 c-21 -16 -42 -30 -46 -30 -5 0 -17 -9 -28 -20 -11 -11
-32 -20 -46 -20 -19 0 -25 -4 -20 -15 4 -12 -6 -15 -57 -16 -75 0 -146 -12
-131 -21 6 -4 63 -8 126 -9 106 -1 119 1 146 21 34 25 49 53 33 58 -20 7 -11
20 9 15 12 -3 20 0 20 7 0 6 10 20 23 30 38 31 13 32 -29 0z"/>
<path d="M2292 3965 c0 -16 2 -22 5 -12 2 9 2 23 0 30 -3 6 -5 -1 -5 -18z"/>
<path d="M3340 3970 c20 -13 40 -13 40 0 0 6 -12 10 -27 10 -22 0 -25 -2 -13
-10z"/>
<path d="M2812 3913 c4 -16 2 -20 -9 -16 -23 9 14 -45 41 -59 20 -11 20 -11 2
17 -16 24 -16 27 -2 22 24 -9 19 5 -11 33 -25 24 -26 24 -21 3z"/>
<path d="M2870 3860 c0 -5 5 -10 11 -10 5 0 7 5 4 10 -3 6 -8 10 -11 10 -2 0
-4 -4 -4 -10z"/>
<path d="M2770 3851 c0 -5 7 -11 14 -14 10 -4 13 -1 9 9 -6 15 -23 19 -23 5z"/>
<path d="M2897 3825 c5 -14 3 -17 -10 -12 -9 3 -17 2 -17 -2 0 -5 7 -11 15
-15 8 -3 15 -1 15 4 0 13 27 13 33 0 3 -6 4 -5 3 1 -1 7 -12 19 -24 27 -21 14
-22 13 -15 -3z"/>
<path d="M2806 3822 c-2 -4 4 -14 15 -20 19 -12 19 -11 9 8 -12 22 -16 24 -24
12z"/>
<path d="M2985 3760 c3 -5 8 -10 11 -10 2 0 4 5 4 10 0 6 -5 10 -11 10 -5 0
-7 -4 -4 -10z"/>
<path d="M1416 3489 c-71 -47 -106 -60 -106 -39 0 6 -5 10 -11 10 -11 0 -10
-10 9 -115 6 -32 6 -57 0 -68 -13 -24 -5 -31 20 -18 27 15 85 14 100 -1 7 -7
12 -27 12 -44 0 -18 5 -36 10 -39 6 -4 10 13 10 44 0 54 4 59 29 37 18 -15
101 -30 101 -18 0 13 68 42 115 49 48 6 66 -8 42 -35 -7 -9 -17 -24 -20 -34
-5 -13 0 -12 28 5 19 12 34 28 35 35 0 14 36 16 45 2 11 -19 25 -10 25 15 0
14 7 28 15 31 27 11 16 24 -20 24 -19 0 -58 11 -87 25 -28 14 -61 25 -72 25
-14 0 -6 -7 22 -20 23 -10 42 -25 42 -33 0 -23 -141 4 -188 37 -45 31 -75 33
-124 6 -39 -20 -54 -12 -37 22 22 42 147 46 198 7 24 -19 61 -26 61 -11 0 12
-69 46 -105 52 -18 3 -30 11 -30 20 0 12 18 16 94 18 56 2 98 -1 105 -8 12
-12 66 -14 66 -2 0 9 -72 41 -120 54 -19 5 -70 10 -113 12 l-78 4 -73 -49z
m193 -182 c8 -10 6 -19 -10 -35 -25 -27 -39 -28 -39 -3 0 47 25 66 49 38z"/>
<path d="M1971 3514 c0 -11 3 -14 6 -6 3 7 2 16 -1 19 -3 4 -6 -2 -5 -13z"/>
<path d="M1202 3475 c-3 -39 -12 -52 -40 -56 l-23 -4 20 -22 c12 -12 21 -28
21 -35 1 -7 8 6 16 30 8 24 13 60 11 80 -3 32 -4 33 -5 7z"/>
<path d="M1822 3444 c10 -10 20 -15 24 -12 3 4 -5 12 -18 18 -22 12 -22 12 -6
-6z"/>
<path d="M2333 3405 c0 -22 2 -30 4 -17 2 12 2 30 0 40 -3 9 -5 -1 -4 -23z"/>
<path d="M2830 3406 c0 -2 16 -21 35 -40 19 -20 35 -40 35 -45 0 -16 54 -93
58 -82 2 6 -6 24 -17 40 -12 16 -21 32 -21 35 0 7 -26 39 -58 72 -22 23 -32
29 -32 20z"/>
<path d="M2351 3325 c0 -12 -5 -25 -10 -30 -11 -11 -18 -122 -8 -131 8 -9 20
63 13 82 -3 8 -1 24 5 35 5 11 8 30 6 42 -4 20 -4 21 -6 2z"/>
<path d="M2602 3210 c0 -101 1 -108 9 -61 5 31 5 79 0 115 -8 56 -9 52 -9 -54z"/>
<path d="M2710 3291 c0 -17 5 -33 10 -36 6 -4 10 8 10 29 0 20 -4 36 -10 36
-5 0 -10 -13 -10 -29z"/>
<path d="M2790 3301 c0 -11 -4 -23 -10 -26 -6 -4 -10 -52 -10 -113 0 -73 3
-102 10 -92 5 8 10 58 11 110 0 63 3 88 9 75 5 -11 9 -38 11 -60 l2 -40 7 45
c7 46 -3 105 -20 115 -6 4 -10 -3 -10 -14z"/>
<path d="M2312 3120 c0 -14 2 -19 5 -12 2 6 2 18 0 25 -3 6 -5 1 -5 -13z"/>
<path d="M3102 3120 c0 -14 2 -19 5 -12 2 6 2 18 0 25 -3 6 -5 1 -5 -13z"/>
<path d="M2230 3100 c0 -11 5 -20 10 -20 6 0 10 9 10 20 0 11 -4 20 -10 20 -5
0 -10 -9 -10 -20z"/>
<path d="M2715 3089 c-4 -12 -2 -26 4 -32 8 -8 11 -2 11 21 0 37 -6 41 -15 11z"/>
<path d="M2580 3082 c0 -13 -13 -51 -29 -85 -16 -34 -31 -72 -33 -84 -5 -34
15 -32 22 2 4 17 19 58 34 92 22 48 26 65 17 80 -10 16 -10 16 -11 -5z"/>
<path d="M3162 3060 c0 -19 2 -27 5 -17 2 9 2 25 0 35 -3 9 -5 1 -5 -18z"/>
<path d="M3310 3043 c0 -35 3 -44 10 -33 13 20 13 67 0 75 -6 4 -10 -12 -10
-42z"/>
<path d="M2290 3053 c0 -22 2 -25 10 -13 13 20 13 40 0 40 -5 0 -10 -12 -10
-27z"/>
<path d="M2813 3005 c0 -22 2 -30 4 -17 2 12 2 30 0 40 -3 9 -5 -1 -4 -23z"/>
<path d="M1930 3020 c-7 -21 -7 -60 0 -60 14 0 17 13 9 40 -4 14 -8 23 -9 20z"/>
<path d="M3174 3004 c3 -9 7 -39 8 -67 l1 -52 6 50 c7 57 3 85 -11 85 -6 0 -7
-7 -4 -16z"/>
<path d="M1886 2984 c-4 -15 -2 -32 3 -37 8 -8 11 0 11 26 0 44 -5 47 -14 11z"/>
<path d="M1228 2986 c-10 -7 -15 -16 -12 -19 7 -7 44 14 44 25 0 12 -13 9 -32
-6z"/>
<path d="M1380 2988 c1 -34 15 -59 37 -64 14 -4 28 -16 33 -28 7 -16 9 -17 9
-4 1 9 -3 20 -9 23 -5 3 -10 16 -10 29 0 24 -28 56 -48 56 -7 0 -12 -6 -12
-12z"/>
<path d="M1960 2990 c0 -5 7 -10 16 -10 8 0 12 5 9 10 -3 6 -10 10 -16 10 -5
0 -9 -4 -9 -10z"/>
<path d="M2271 2984 c0 -11 3 -14 6 -6 3 7 2 16 -1 19 -3 4 -6 -2 -5 -13z"/>
<path d="M2426 2964 c-9 -24 -7 -54 4 -54 6 0 10 16 10 35 0 38 -4 44 -14 19z"/>
<path d="M1812 2930 c0 -14 2 -19 5 -12 2 6 2 18 0 25 -3 6 -5 1 -5 -13z"/>
<path d="M3290 2920 c0 -16 5 -30 10 -30 6 0 10 14 10 30 0 17 -4 30 -10 30
-5 0 -10 -13 -10 -30z"/>
<path d="M1852 2910 c0 -14 2 -19 5 -12 2 6 2 18 0 25 -3 6 -5 1 -5 -13z"/>
<path d="M2257 2923 c-10 -10 -8 -66 3 -83 7 -11 10 0 10 38 0 53 -1 57 -13
45z"/>
<path d="M1288 2914 c-4 -4 -36 -10 -70 -13 -49 -5 -64 -10 -66 -23 -2 -12 3
-18 17 -18 27 0 51 -26 51 -55 0 -18 4 -23 15 -19 8 4 15 14 15 23 0 37 70 50
134 25 13 -5 36 35 36 64 0 13 -6 11 -25 -11 -35 -37 -71 -36 -88 4 -6 17 -15
27 -19 23z"/>
<path d="M3420 2891 c0 -22 15 -35 30 -26 7 4 7 13 0 26 -14 25 -30 25 -30 0z"/>
<path d="M2710 2890 c0 -5 5 -10 10 -10 6 0 10 5 10 10 0 6 -4 10 -10 10 -5 0
-10 -4 -10 -10z"/>
<path d="M2412 2860 c0 -19 2 -27 5 -17 2 9 2 25 0 35 -3 9 -5 1 -5 -18z"/>
<path d="M2501 2854 c0 -11 3 -14 6 -6 3 7 2 16 -1 19 -3 4 -6 -2 -5 -13z"/>
<path d="M1477 2839 c7 -27 23 -34 23 -11 0 11 -6 22 -14 25 -10 4 -12 0 -9
-14z"/>
<path d="M3460 2850 c0 -5 5 -10 10 -10 6 0 10 5 10 10 0 6 -4 10 -10 10 -5 0
-10 -4 -10 -10z"/>
<path d="M2770 2834 c0 -8 5 -12 10 -9 6 4 8 11 5 16 -9 14 -15 11 -15 -7z"/>
<path d="M2182 2800 c0 -19 2 -27 5 -17 2 9 2 25 0 35 -3 9 -5 1 -5 -18z"/>
<path d="M3480 2824 c0 -7 40 -44 47 -44 2 0 -4 11 -14 25 -17 23 -33 32 -33
19z"/>
<path d="M2096 2799 c-7 -17 8 -68 16 -53 2 5 1 23 -2 39 -5 22 -9 26 -14 14z"/>
<path d="M2392 2775 c0 -16 2 -22 5 -12 2 9 2 23 0 30 -3 6 -5 -1 -5 -18z"/>
<path d="M3470 2791 c0 -9 35 -55 67 -89 25 -26 13 7 -14 40 -42 50 -53 60
-53 49z"/>
<path d="M1929 2788 c-7 -32 -8 -92 0 -105 8 -14 10 -3 11 45 0 34 -2 62 -5
62 -3 0 -5 -1 -6 -2z"/>
<path d="M2190 2736 c0 -14 5 -28 10 -31 6 -4 10 7 10 24 0 17 -4 31 -10 31
-5 0 -10 -11 -10 -24z"/>
<path d="M3292 2740 c0 -14 2 -19 5 -12 2 6 2 18 0 25 -3 6 -5 1 -5 -13z"/>
<path d="M1197 2733 c-11 -10 -8 -43 3 -43 6 0 10 11 10 25 0 26 -2 29 -13 18z"/>
<path d="M2520 2715 c0 -15 4 -24 10 -20 6 3 10 12 10 20 0 8 -4 17 -10 20 -6
4 -10 -5 -10 -20z"/>
<path d="M2122 2710 c0 -14 2 -19 5 -12 2 6 2 18 0 25 -3 6 -5 1 -5 -13z"/>
<path d="M2290 2706 c0 -9 5 -16 10 -16 6 0 10 4 10 9 0 6 -4 13 -10 16 -5 3
-10 -1 -10 -9z"/>
<path d="M2411 2694 c0 -11 3 -14 6 -6 3 7 2 16 -1 19 -3 4 -6 -2 -5 -13z"/>
<path d="M2485 2700 c3 -5 8 -10 11 -10 2 0 4 5 4 10 0 6 -5 10 -11 10 -5 0
-7 -4 -4 -10z"/>
<path d="M3005 2697 c-4 -10 -5 -21 -1 -24 10 -10 18 4 13 24 -4 17 -4 17 -12
0z"/>
<path d="M2062 2670 c0 -14 2 -19 5 -12 2 6 2 18 0 25 -3 6 -5 1 -5 -13z"/>
<path d="M2222 2665 c6 -14 15 -25 19 -25 5 0 3 11 -3 25 -6 14 -15 25 -19 25
-5 0 -3 -11 3 -25z"/>
<path d="M3561 2674 c0 -11 3 -14 6 -6 3 7 2 16 -1 19 -3 4 -6 -2 -5 -13z"/>
<path d="M1202 2660 c0 -14 2 -19 5 -12 2 6 2 18 0 25 -3 6 -5 1 -5 -13z"/>
<path d="M2130 2675 c0 -13 32 -66 37 -62 7 7 -19 67 -29 67 -5 0 -8 -2 -8 -5z"/>
<path d="M1941 2648 c1 -7 5 -24 9 -38 8 -24 8 -24 9 7 1 17 -3 35 -9 38 -5 3
-10 0 -9 -7z"/>
<path d="M2717 2653 c-4 -3 -7 -11 -7 -17 0 -6 5 -5 12 2 6 6 9 14 7 17 -3 3
-9 2 -12 -2z"/>
<path d="M2541 2634 c0 -11 3 -14 6 -6 3 7 2 16 -1 19 -3 4 -6 -2 -5 -13z"/>
<path d="M1325 2631 c-3 -6 3 -14 12 -20 13 -7 15 -13 7 -20 -7 -8 -25 -4 -60
14 -65 33 -85 33 -54 0 19 -20 24 -37 24 -75 0 -57 13 -64 39 -20 20 34 45 38
83 14 22 -15 26 -15 42 -1 24 22 46 7 81 -54 l28 -50 7 52 c8 61 -2 77 -67
104 -77 32 -92 40 -100 52 -9 15 -33 17 -42 4z"/>
<path d="M2326 2631 c-4 -5 -2 -12 3 -15 5 -4 12 -2 15 3 4 5 2 12 -3 15 -5 4
-12 2 -15 -3z"/>
<path d="M2271 2593 c12 -24 26 -43 31 -43 15 0 8 14 -23 50 l-31 35 23 -42z"/>
<path d="M3352 2595 c0 -16 2 -22 5 -12 2 9 2 23 0 30 -3 6 -5 -1 -5 -18z"/>
<path d="M2180 2593 c0 -15 29 -49 30 -35 0 7 -7 20 -15 28 -8 9 -15 11 -15 7z"/>
<path d="M2965 2591 c-3 -5 -1 -12 5 -16 5 -3 10 1 10 9 0 18 -6 21 -15 7z"/>
<path d="M2097 2570 c3 -11 9 -17 14 -15 10 7 1 35 -11 35 -5 0 -6 -9 -3 -20z"/>
<path d="M1960 2556 c0 -14 5 -28 10 -31 6 -3 10 5 10 19 0 14 -4 28 -10 31
-6 3 -10 -5 -10 -19z"/>
<path d="M2122 2530 c-1 -8 5 -33 13 -55 l14 -40 1 33 c0 17 -4 32 -9 32 -5 0
-12 10 -14 23 -2 12 -5 15 -5 7z"/>
<path d="M2327 2524 c-3 -4 -2 -15 4 -26 6 -10 7 -28 4 -40 -4 -11 -3 -30 3
-42 5 -11 17 -37 26 -56 l16 -35 0 30 c0 17 -7 40 -15 53 -11 15 -13 27 -6 39
10 19 -19 90 -32 77z"/>
<path d="M2544 2508 c16 -56 18 -79 8 -108 -9 -24 -8 -30 2 -30 15 0 32 114
20 143 -10 27 -38 22 -30 -5z"/>
<path d="M1980 2498 c0 -7 9 -24 20 -38 11 -14 20 -30 20 -36 0 -6 7 -17 15
-24 12 -10 15 -10 15 3 0 8 -7 20 -15 27 -8 7 -15 21 -15 31 0 11 -4 19 -10
19 -5 0 -10 7 -10 15 0 8 -4 15 -10 15 -5 0 -10 -6 -10 -12z"/>
<path d="M2843 2503 c-7 -3 -13 -9 -13 -14 0 -5 -13 -37 -30 -71 -16 -34 -30
-69 -30 -78 0 -9 -4 -20 -9 -25 -6 -6 -12 -53 -15 -105 l-5 -95 17 97 c9 53
20 100 25 104 4 4 7 13 7 20 0 16 44 111 66 141 15 21 9 34 -13 26z"/>
<path d="M1811 2484 c0 -11 3 -14 6 -6 3 7 2 16 -1 19 -3 4 -6 -2 -5 -13z"/>
<path d="M2642 2470 c0 -14 2 -19 5 -12 2 6 2 18 0 25 -3 6 -5 1 -5 -13z"/>
<path d="M2060 2451 c0 -12 7 -29 15 -38 14 -14 15 -13 9 13 -9 39 -24 54 -24
25z"/>
<path d="M2893 2455 c-13 -9 -23 -22 -23 -28 0 -7 -9 -23 -20 -37 -11 -14 -20
-34 -20 -45 0 -12 -4 -25 -10 -31 -5 -5 -12 -39 -15 -74 -5 -63 -5 -64 9 -35
9 17 15 41 16 55 0 14 9 50 20 80 11 30 20 56 20 57 0 2 4 3 9 3 5 0 5 -18 -1
-42 -5 -24 -10 -77 -10 -118 0 -68 2 -76 26 -97 20 -17 26 -31 25 -55 -4 -56
32 -103 100 -133 38 -17 171 -21 171 -5 0 6 -31 10 -74 10 -73 0 -74 0 -110
40 -47 52 -63 94 -72 182 -5 58 -4 71 6 61 7 -6 15 -42 18 -79 8 -106 58 -168
136 -168 123 -1 197 5 191 15 -5 7 -34 8 -83 4 -46 -4 -87 -3 -102 4 -14 5
-19 10 -12 10 19 1 14 16 -15 48 -16 17 -33 41 -39 54 -19 40 -34 170 -25 222
4 26 6 47 4 47 -9 0 -33 -29 -33 -39 0 -21 -19 -11 -22 12 -3 20 -5 19 -21
-12 -9 -19 -17 -42 -17 -51 0 -10 -7 -31 -16 -46 -15 -28 -16 -27 -10 42 3 39
11 85 17 102 6 17 9 38 7 47 -3 14 -5 14 -25 0z m67 -142 c0 -21 -3 -24 -9
-14 -5 8 -7 20 -4 28 8 21 13 15 13 -14z m98 -255 c16 -16 15 -29 -2 -22 -16
6 -30 34 -18 34 5 0 13 -5 20 -12z"/>
<path d="M1308 2443 c-10 -2 -18 -14 -18 -25 0 -24 18 -20 38 10 14 22 12 24
-20 15z"/>
<path d="M1832 2415 c0 -16 2 -22 5 -12 2 9 2 23 0 30 -3 6 -5 -1 -5 -18z"/>
<path d="M2622 2415 c0 -16 2 -22 5 -12 2 9 2 23 0 30 -3 6 -5 -1 -5 -18z"/>
<path d="M2156 2388 c-4 -20 -5 -41 -2 -47 9 -14 -4 -81 -14 -81 -5 0 -11 12
-13 28 -3 21 -4 19 -6 -11 -1 -26 3 -36 10 -31 8 5 8 1 0 -14 -6 -11 -10 -36
-10 -54 1 -21 3 -26 6 -13 9 35 23 41 23 10 0 -32 14 -63 22 -49 2 5 2 74 -2
154 -4 110 -8 136 -14 108z"/>
<path d="M2293 2385 c0 -22 2 -30 4 -17 2 12 2 30 0 40 -3 9 -5 -1 -4 -23z"/>
<path d="M1517 2403 c-3 -5 -2 -15 2 -22 7 -10 10 -10 16 -1 4 6 3 16 -3 22
-5 5 -12 6 -15 1z"/>
<path d="M1583 2375 c0 -22 2 -30 4 -17 2 12 2 30 0 40 -3 9 -5 -1 -4 -23z"/>
<path d="M1676 2383 c10 -40 14 -41 14 -5 0 18 -5 32 -10 32 -6 0 -8 -11 -4
-27z"/>
<path d="M1290 2380 c0 -5 5 -10 11 -10 5 0 7 5 4 10 -3 6 -8 10 -11 10 -2 0
-4 -4 -4 -10z"/>
<path d="M2096 2373 c-4 -9 -2 -21 4 -27 7 -7 10 -2 10 17 0 31 -5 34 -14 10z"/>
<path d="M3060 2374 c0 -8 5 -12 10 -9 6 4 8 11 5 16 -9 14 -15 11 -15 -7z"/>
<path d="M2060 2365 c0 -8 5 -15 10 -15 6 0 10 7 10 15 0 8 -4 15 -10 15 -5 0
-10 -7 -10 -15z"/>
<path d="M3203 2353 c-16 -33 -16 -43 -3 -43 6 0 10 9 10 19 0 11 5 23 10 26
12 7 13 25 3 25 -5 0 -14 -12 -20 -27z"/>
<path d="M2601 2354 c0 -11 3 -14 6 -6 3 7 2 16 -1 19 -3 4 -6 -2 -5 -13z"/>
<path d="M3036 2300 c-16 -99 40 -196 125 -220 29 -8 49 -6 100 10 35 11 71
24 79 30 13 9 13 11 0 20 -8 5 -23 10 -32 10 -27 0 -58 53 -58 99 0 23 -4 41
-10 41 -15 0 -12 -73 5 -113 13 -33 12 -47 -6 -47 -16 0 -49 84 -49 124 -1 34
-2 38 -11 23 -6 -11 -8 -33 -5 -50 18 -84 18 -97 5 -97 -8 0 -23 13 -34 28
-16 22 -20 42 -20 103 1 69 0 74 -12 52 -17 -34 -16 -92 2 -136 19 -47 19 -50
-5 -37 -32 17 -50 64 -50 129 0 70 -15 89 -24 31z"/>
<path d="M2081 2314 c0 -11 3 -14 6 -6 3 7 2 16 -1 19 -3 4 -6 -2 -5 -13z"/>
<path d="M2504 2303 c3 -18 -1 -51 -9 -74 -19 -53 -19 -69 1 -69 9 0 18 -9 21
-20 8 -30 23 -13 23 26 0 20 5 44 11 56 9 16 7 24 -10 41 -11 12 -25 33 -31
47 -10 24 -10 23 -6 -7z"/>
<path d="M2393 2245 c0 -27 2 -38 4 -22 2 15 2 37 0 50 -2 12 -4 0 -4 -28z"/>
<path d="M2000 2165 c0 -66 -5 -137 -11 -158 -5 -20 -6 -43 -2 -50 19 -29 43
278 24 310 -8 13 -10 -13 -11 -102z"/>
<path d="M3850 2265 c7 -8 18 -15 24 -15 6 0 24 -19 39 -42 23 -35 27 -52 25
-93 -2 -37 -7 -51 -19 -53 -10 -2 -19 6 -22 20 -7 26 -63 88 -81 88 -7 0 -8
-3 -1 -8 6 -4 25 -26 43 -49 36 -45 55 -123 45 -175 -12 -62 -65 -127 -76 -95
-3 8 -10 7 -24 -5 -11 -10 -23 -18 -26 -18 -11 0 -8 38 3 45 6 3 10 15 10 26
0 10 -4 19 -10 19 -5 0 -10 -9 -10 -20 0 -12 -9 -30 -20 -42 l-20 -22 0 48 c0
29 -4 45 -10 41 -5 -3 -10 -23 -10 -44 0 -26 -7 -44 -23 -59 -29 -28 -37 -28
-37 -1 0 20 -2 20 -22 -6 -21 -27 -22 -27 -30 -6 -6 18 -11 20 -26 10 -18 -11
-18 -14 5 -78 28 -82 29 -119 2 -175 -24 -52 -72 -106 -94 -106 -18 0 -19 5
-2 22 48 50 71 98 47 98 -5 0 -10 -6 -10 -14 0 -18 -28 -41 -38 -31 -4 4 -1
10 6 12 14 6 17 93 2 93 -5 0 -10 -19 -10 -43 0 -40 -13 -67 -32 -67 -4 0 -8
19 -9 43 l0 42 -19 -42 c-20 -44 -40 -57 -40 -25 0 10 -5 23 -11 29 -8 8 -8
17 1 32 6 12 9 49 7 84 l-3 62 -2 -62 c-1 -36 -7 -63 -12 -63 -6 0 -34 21 -63
48 -28 26 -47 40 -40 32 69 -92 76 -204 17 -267 -20 -21 -78 -53 -97 -53 -25
0 -34 30 -13 42 16 9 16 11 0 23 -16 11 -16 17 -6 39 16 35 15 41 -3 26 -16
-13 -17 -11 -29 35 -3 11 -4 -8 -2 -42 1 -43 -2 -64 -10 -67 -8 -3 -15 7 -19
26 -5 21 -10 27 -18 19 -16 -16 -44 5 -52 39 -7 34 -108 161 -136 172 -27 10
-24 3 24 -60 69 -91 106 -165 107 -209 0 -26 -16 -12 -29 25 -20 56 -201 275
-216 261 -3 -3 11 -24 30 -45 105 -114 126 -147 160 -249 28 -84 37 -155 25
-186 -19 -45 -30 -35 -30 27 0 81 -37 200 -57 181 -4 -4 -2 -17 5 -27 7 -11
12 -37 12 -57 -1 -36 -2 -37 -15 -19 -15 20 -15 20 -16 0 -1 -10 -1 -37 0 -59
1 -22 -2 -51 -8 -65 l-10 -25 -1 25 c-1 14 -3 50 -4 81 -2 51 -21 119 -34 119
-5 0 -27 -25 -56 -64 -32 -44 -97 -29 -111 25 -3 14 1 45 9 70 18 50 22 134 6
109 -5 -8 -10 -25 -10 -36 0 -12 -7 -35 -15 -50 -20 -39 -19 -83 4 -121 24
-38 47 -46 100 -34 49 11 55 -3 16 -39 -19 -18 -36 -23 -80 -24 -39 0 -59 4
-65 14 -5 8 -12 11 -16 7 -12 -12 17 -37 59 -49 40 -12 40 -12 13 -21 -35 -12
-86 12 -120 56 -22 28 -26 29 -26 11 0 -25 43 -66 87 -83 32 -13 90 -11 128 4
l20 8 -20 -21 c-29 -29 -120 -42 -176 -26 -42 13 -119 81 -119 105 0 5 -8 9
-17 7 -16 -3 -18 9 -21 125 -2 94 -6 127 -15 127 -15 0 -50 56 -43 68 2 4 1
14 -5 22 -6 10 -9 -8 -9 -54 0 -57 2 -67 14 -57 11 9 15 5 18 -26 5 -41 -7
-117 -22 -145 -6 -10 -10 -25 -10 -33 0 -8 -4 -15 -10 -15 -5 0 -10 -10 -9
-22 0 -23 0 -23 9 -2 4 12 16 24 25 28 16 6 17 1 11 -44 -4 -28 -17 -70 -31
-95 -13 -25 -26 -57 -29 -73 -4 -15 -19 -41 -34 -57 -38 -42 -92 -133 -92
-154 0 -21 -23 -44 -33 -34 -23 22 7 188 39 213 10 9 11 16 1 32 -9 16 -9 22
1 25 6 3 12 11 12 18 0 7 6 16 13 18 9 4 9 6 0 6 -7 1 -20 -11 -30 -26 -10
-16 -20 -30 -23 -33 -19 -16 -49 -83 -59 -131 -7 -31 -21 -65 -31 -74 -24 -22
-25 -13 -5 62 19 71 20 154 3 151 -9 -2 -15 16 -19 52 -3 30 -9 79 -14 108 -6
41 -5 52 6 52 8 0 3 9 -11 20 -20 15 -22 21 -13 31 10 10 5 20 -26 48 -21 20
-49 60 -61 89 -22 50 -40 68 -40 37 0 -8 27 -66 60 -129 33 -63 60 -124 60
-135 0 -11 5 -23 10 -26 12 -7 12 -152 0 -180 -6 -15 -9 -8 -9 27 -1 26 -5 50
-11 53 -5 3 -10 15 -10 26 0 10 -4 19 -9 19 -6 0 -6 -13 0 -32 19 -67 5 -262
-22 -294 -4 -6 -20 -53 -34 -105 -25 -95 -26 -176 -2 -207 17 -21 -8 -14 -29
9 -15 16 -19 35 -18 85 0 40 -4 65 -11 68 -9 3 -7 23 6 78 10 40 18 98 18 128
-1 59 -3 56 -28 -54 -17 -71 -48 -133 -90 -179 -21 -23 -45 -57 -55 -76 -20
-41 -24 -155 -6 -176 7 -8 10 -21 7 -29 -9 -24 35 -54 88 -61 53 -6 94 8 103
35 5 13 3 13 -11 1 -23 -19 -126 -10 -142 12 -17 24 -14 172 4 172 8 0 19 -17
25 -37 11 -38 53 -94 63 -84 3 3 -4 17 -16 32 -27 34 -45 99 -33 120 7 12 11
13 17 5 4 -7 5 -15 2 -18 -3 -2 -1 -18 5 -34 11 -33 100 -89 140 -89 14 0 37
9 51 20 14 11 38 20 54 20 38 0 47 10 25 26 -15 12 -12 13 22 11 24 -1 41 3
43 11 4 10 -6 11 -44 7 -40 -6 -52 -3 -75 15 -22 17 -28 30 -28 61 0 42 13 51
30 19 13 -24 76 -52 100 -45 10 3 28 14 40 25 13 11 27 20 33 20 12 0 -1 -52
-16 -63 -7 -6 -4 -6 8 -2 11 3 48 9 82 12 35 3 63 9 63 13 0 3 -13 5 -28 2
-38 -5 -62 20 -62 63 0 19 -4 37 -10 40 -5 3 -10 29 -10 56 0 31 -4 48 -10 44
-5 -3 -10 -24 -10 -46 0 -45 -15 -52 -24 -11 -7 28 5 108 22 153 6 14 32 54
59 90 28 35 58 81 68 102 15 33 20 36 28 22 19 -35 -26 -183 -74 -243 -30 -37
-36 -59 -31 -117 4 -49 10 -66 35 -92 55 -58 75 -60 161 -19 84 41 141 93 151
137 9 41 -17 93 -62 123 l-36 25 27 7 c38 9 82 -12 100 -49 l16 -32 0 27 c0
51 31 87 106 123 87 42 129 76 155 126 12 24 26 39 38 39 10 0 31 16 45 35 15
19 36 35 47 35 11 0 23 8 26 18 4 9 16 30 27 45 20 27 23 28 79 22 53 -6 62
-5 97 20 22 15 40 32 40 37 0 6 6 8 14 5 7 -3 18 -1 24 5 11 11 201 30 215 21
9 -5 117 65 130 85 4 6 16 12 25 12 9 0 32 9 49 20 18 11 51 21 73 22 39 3 40
4 50 53 5 28 11 63 13 80 2 25 9 32 52 49 142 54 158 63 208 114 29 29 51 59
49 66 -1 8 18 34 43 59 25 25 45 48 45 50 0 2 -12 2 -26 -1 -24 -4 -25 -3 -15
16 16 29 14 39 -9 45 -12 3 -20 14 -20 26 0 17 -6 21 -30 21 -24 0 -30 4 -30
21 0 15 -4 19 -16 15 -9 -3 -21 -6 -27 -6 -6 0 5 -14 26 -31 20 -17 37 -39 37
-50 0 -20 -15 -26 -25 -9 -3 6 -11 10 -17 10 -7 0 -5 -7 4 -17 39 -47 47 -104
22 -149 l-16 -29 5 43 c3 26 0 57 -8 75 l-14 32 -1 -42 c0 -49 -8 -75 -21 -67
-5 3 -9 15 -9 27 -1 14 -15 -6 -38 -52 -34 -68 -40 -75 -69 -78 -35 -3 -42 7
-18 27 16 13 21 50 7 50 -4 0 -13 -5 -20 -12 -9 -9 -12 -8 -12 5 0 9 -4 17
-10 17 -5 0 -10 -11 -10 -23 0 -27 -28 -57 -53 -57 -21 0 -32 19 -18 33 6 6
11 19 11 29 0 10 5 18 10 18 6 0 10 28 10 63 0 49 4 68 18 80 10 10 24 17 30
17 6 0 17 8 24 18 7 9 25 23 41 31 l27 14 -27 19 -28 18 -5 -28 c-8 -40 -34
-35 -38 8 -2 19 -12 46 -23 61 -10 15 -19 32 -19 38 0 6 -6 11 -14 11 -7 0
-19 7 -26 15 -7 8 -19 15 -27 15 -13 0 -13 -3 -3 -15z m-190 -628 c16 -55 -2
-104 -36 -104 -22 0 -25 3 -18 21 4 11 9 50 10 86 1 36 3 70 4 75 1 16 28 -36
40 -78z m180 13 c0 -12 -34 -30 -58 -30 -32 0 -35 28 -4 33 50 8 62 7 62 -3z
m-475 -127 c-18 -106 -41 -145 -86 -148 -12 -1 -24 -7 -29 -14 -4 -7 -20 -11
-36 -9 l-29 4 28 12 c31 13 89 68 106 101 6 11 11 36 11 55 0 30 4 36 20 36
19 0 20 -4 15 -37z m180 -83 c-3 -5 -12 -10 -18 -10 -7 0 -6 4 3 10 19 12 23
12 15 0z m-378 -86 c-3 -3 -12 -4 -19 -1 -8 3 -5 6 6 6 11 1 17 -2 13 -5z
m-237 -172 c0 -21 -52 -100 -57 -86 -5 15 36 104 47 104 6 0 10 -8 10 -18z
m-70 -30 c-18 -32 -37 -52 -48 -52 -6 0 1 18 15 40 25 37 54 48 33 12z m-329
-9 c33 -22 53 -27 112 -29 40 -1 74 -3 77 -4 18 -6 -74 -29 -117 -29 -47 -1
-57 3 -93 35 -63 57 -50 74 21 27z m256 -59 c-3 -3 -12 -4 -19 -1 -8 3 -5 6 6
6 11 1 17 -2 13 -5z m-362 -139 c-15 -33 -44 -63 -32 -34 3 8 14 39 24 69 16
48 18 51 21 27 2 -16 -4 -44 -13 -62z m155 -105 c7 -28 1 -70 -9 -70 -7 0 -51
80 -51 93 0 5 12 7 27 5 19 -2 29 -10 33 -28z m-460 -16 c0 -8 7 -17 15 -20 8
-4 15 -14 15 -23 0 -10 7 -26 15 -37 30 -39 8 -122 -29 -108 -7 3 -21 24 -32
47 l-19 42 -3 -37 c-2 -21 -7 -38 -11 -38 -32 0 -11 169 23 192 13 9 26 0 26
-18z m388 -2 c37 -34 40 -62 11 -103 -30 -43 -50 -34 -54 24 -1 26 -8 54 -15
62 -10 12 -10 18 0 30 17 20 22 19 58 -13z m-159 -15 c-3 -37 1 -57 11 -57 6
0 10 13 10 29 0 16 7 34 15 41 8 7 15 11 16 9 0 -2 2 -14 3 -26 2 -13 10 -31
19 -41 20 -22 22 -63 5 -80 -14 -14 -42 -15 -66 -3 -9 5 -25 12 -34 15 -21 6
-25 76 -8 121 11 30 31 24 29 -8z m-313 -46 c-1 -24 -9 -47 -21 -61 -15 -17
-19 -35 -19 -91 1 -67 0 -69 -17 -53 -15 13 -19 31 -19 81 0 55 4 71 32 114
18 27 35 49 39 49 3 0 5 -18 5 -39z m-158 -209 c7 -2 12 -10 12 -17 0 -8 7
-21 16 -30 29 -28 8 -27 -25 2 -29 26 -31 31 -30 93 l2 65 6 -54 c4 -30 12
-56 19 -59z m140 -64 c-7 -19 -38 -22 -38 -4 0 10 9 16 21 16 12 0 19 -5 17
-12z"/>
<path d="M2102 780 c0 -14 2 -19 5 -12 2 6 2 18 0 25 -3 6 -5 1 -5 -13z"/>
<path d="M2326 2183 c-4 -32 -2 -78 3 -103 8 -40 9 -33 10 58 1 56 -1 102 -3
102 -2 0 -7 -26 -10 -57z"/>
<path d="M2643 2175 c0 -38 2 -53 4 -32 2 20 2 52 0 70 -2 17 -4 1 -4 -38z"/>
<path d="M1582 2200 c0 -14 2 -19 5 -12 2 6 2 18 0 25 -3 6 -5 1 -5 -13z"/>
<path d="M2198 2207 c-12 -29 -10 -83 3 -70 6 6 9 28 7 49 -2 29 -5 34 -10 21z"/>
<path d="M2581 2204 c0 -11 3 -14 6 -6 3 7 2 16 -1 19 -3 4 -6 -2 -5 -13z"/>
<path d="M3768 2183 c7 -3 16 -2 19 1 4 3 -2 6 -13 5 -11 0 -14 -3 -6 -6z"/>
<path d="M1677 2173 c-6 -12 -1 -133 7 -140 3 -3 6 28 6 70 0 72 -3 88 -13 70z"/>
<path d="M1710 2160 c0 -11 5 -20 10 -20 6 0 10 9 10 20 0 11 -4 20 -10 20 -5
0 -10 -9 -10 -20z"/>
<path d="M1280 2145 c-7 -8 -19 -15 -27 -15 -22 0 -8 -49 22 -77 28 -27 45
-29 45 -8 0 8 -7 15 -16 15 -14 0 -16 9 -12 50 3 28 4 50 3 50 -2 0 -8 -7 -15
-15z"/>
<path d="M2466 2141 c-4 -7 -5 -15 -2 -18 9 -9 19 4 14 18 -4 11 -6 11 -12 0z"/>
<path d="M2562 2125 c0 -16 2 -22 5 -12 2 9 2 23 0 30 -3 6 -5 -1 -5 -18z"/>
<path d="M3364 2141 c4 -6 12 -8 18 -5 6 4 13 3 17 -2 3 -5 20 -17 38 -27 37
-20 56 -6 21 17 -31 20 -104 33 -94 17z"/>
<path d="M4083 2143 c9 -2 23 -2 30 0 6 3 -1 5 -18 5 -16 0 -22 -2 -12 -5z"/>
<path d="M2388 2089 c-1 -28 0 -53 5 -56 4 -2 7 21 7 51 0 70 -7 73 -12 5z"/>
<path d="M2601 2104 c0 -11 3 -14 6 -6 3 7 2 16 -1 19 -3 4 -6 -2 -5 -13z"/>
<path d="M1312 2090 c0 -14 2 -19 5 -12 2 6 2 18 0 25 -3 6 -5 1 -5 -13z"/>
<path d="M2290 2094 c0 -8 5 -12 10 -9 6 3 10 10 10 16 0 5 -4 9 -10 9 -5 0
-10 -7 -10 -16z"/>
<path d="M2140 2081 c0 -28 -50 -138 -89 -194 -40 -59 -89 -154 -101 -196 -5
-19 -6 -62 -3 -95 l7 -61 7 49 c10 65 53 167 105 246 54 85 94 162 104 203 4
17 11 40 15 50 4 10 3 17 -4 17 -6 0 -11 -5 -11 -11 0 -8 -5 -8 -15 1 -13 10
-15 9 -15 -9z"/>
<path d="M1845 2070 c-5 -8 -10 -52 -11 -97 -2 -50 -8 -92 -18 -112 -9 -16
-16 -38 -16 -48 0 -21 -77 -143 -91 -143 -14 0 -11 17 5 33 8 8 24 31 36 52
20 36 20 36 0 30 -17 -5 -20 -2 -20 20 0 15 -4 24 -10 20 -5 -3 -10 -15 -10
-26 0 -10 5 -19 10 -19 6 0 10 -7 10 -16 0 -14 -2 -15 -16 -3 -15 12 -18 11
-28 -4 -6 -11 -28 -42 -50 -70 -40 -54 -96 -165 -96 -192 0 -8 5 -15 10 -15 6
0 10 7 10 16 0 19 69 121 104 153 21 20 26 21 26 8 0 -9 -4 -17 -10 -17 -5 0
-10 -7 -10 -15 0 -22 8 -19 44 18 17 17 48 45 69 61 20 16 37 38 37 48 0 10 4
18 9 18 12 0 55 90 54 112 -1 10 2 18 6 18 4 0 8 39 8 87 1 76 -1 84 -12 64
l-12 -24 -10 28 c-7 23 -11 26 -18 15z"/>
<path d="M2661 2064 c0 -11 3 -14 6 -6 3 7 2 16 -1 19 -3 4 -6 -2 -5 -13z"/>
<path d="M2751 2057 c-1 -23 2 -27 18 -22 31 10 51 -6 81 -64 23 -46 30 -53
36 -37 5 12 2 21 -9 28 -11 6 -17 22 -17 48 0 28 -4 40 -15 40 -7 0 -19 8 -24
18 -6 9 -11 11 -11 5 0 -7 -11 -13 -24 -13 -13 0 -27 6 -29 13 -3 6 -6 -1 -6
-16z"/>
<path d="M1710 2040 c0 -11 5 -20 10 -20 6 0 10 9 10 20 0 11 -4 20 -10 20 -5
0 -10 -9 -10 -20z"/>
<path d="M2621 2034 c0 -11 3 -14 6 -6 3 7 2 16 -1 19 -3 4 -6 -2 -5 -13z"/>
<path d="M1351 2014 c0 -11 3 -14 6 -6 3 7 2 16 -1 19 -3 4 -6 -2 -5 -13z"/>
<path d="M2427 2010 c-3 -11 -1 -23 4 -26 5 -3 9 6 9 20 0 31 -6 34 -13 6z"/>
<path d="M2243 2006 c4 -10 7 -29 7 -44 0 -19 3 -23 11 -15 14 14 7 65 -10 71
-10 3 -12 0 -8 -12z"/>
<path d="M2680 2010 c0 -5 5 -10 10 -10 6 0 10 5 10 10 0 6 -4 10 -10 10 -5 0
-10 -4 -10 -10z"/>
<path d="M4057 1984 c11 -16 22 -36 25 -44 2 -7 7 -10 10 -5 9 16 -9 53 -33
66 l-22 11 20 -28z"/>
<path d="M2771 1984 c0 -11 3 -14 6 -6 3 7 2 16 -1 19 -3 4 -6 -2 -5 -13z"/>
<path d="M1581 1974 c0 -11 3 -14 6 -6 3 7 2 16 -1 19 -3 4 -6 -2 -5 -13z"/>
<path d="M2311 1974 c0 -11 3 -14 6 -6 3 7 2 16 -1 19 -3 4 -6 -2 -5 -13z"/>
<path d="M2641 1974 c0 -11 3 -14 6 -6 3 7 2 16 -1 19 -3 4 -6 -2 -5 -13z"/>
<path d="M2351 1964 c0 -11 3 -14 6 -6 3 7 2 16 -1 19 -3 4 -6 -2 -5 -13z"/>
<path d="M3398 1955 c17 -14 33 -25 37 -25 5 0 -5 11 -21 25 -16 14 -33 25
-37 25 -5 0 5 -11 21 -25z"/>
<path d="M1310 1955 c0 -8 -4 -15 -9 -15 -17 0 -36 -201 -24 -255 12 -54 -14
-182 -44 -213 -18 -18 -16 -33 2 -26 9 4 15 0 15 -10 0 -9 5 -16 10 -16 6 0
10 7 10 15 0 8 5 15 10 15 17 0 11 -48 -11 -87 -16 -29 -19 -41 -10 -55 6 -10
11 -25 11 -35 0 -18 10 -12 14 9 10 57 52 140 95 185 12 12 21 28 21 34 0 7
-18 -7 -40 -32 -31 -34 -42 -41 -51 -32 -9 9 -10 19 -2 35 6 13 8 59 5 104 -3
62 -1 88 12 112 21 41 21 63 -1 55 -15 -6 -16 4 -10 110 4 64 5 117 2 117 -3
0 -5 -7 -5 -15z"/>
<path d="M1675 1961 c-3 -5 -1 -12 5 -16 5 -3 10 1 10 9 0 18 -6 21 -15 7z"/>
<path d="M1967 1943 c-11 -10 -8 -43 3 -43 6 0 10 11 10 25 0 26 -2 29 -13 18z"/>
<path d="M2290 1919 c0 -23 -4 -30 -15 -25 -19 7 -30 -33 -21 -77 8 -39 58
-147 68 -147 5 0 8 -10 8 -22 0 -21 0 -21 15 -2 8 10 14 26 14 34 0 10 -2 11
-6 3 -18 -46 -46 49 -42 144 3 92 1 123 -11 123 -5 0 -10 -14 -10 -31z"/>
<path d="M1062 1910 c0 -19 2 -27 5 -17 2 9 2 25 0 35 -3 9 -5 1 -5 -18z"/>
<path d="M2327 1926 c-4 -10 -5 -21 -2 -24 9 -9 17 6 13 25 -3 17 -4 17 -11
-1z"/>
<path d="M2721 1924 c0 -11 3 -14 6 -6 3 7 2 16 -1 19 -3 4 -6 -2 -5 -13z"/>
<path d="M3254 1915 c14 -14 37 -45 52 -70 27 -47 50 -61 39 -24 -4 12 -2 24
4 28 18 11 -14 46 -64 70 -57 27 -61 26 -31 -4z"/>
<path d="M2197 1923 c-11 -10 -8 -53 3 -53 6 0 10 14 10 30 0 31 -2 35 -13 23z"/>
<path d="M3832 1885 c0 -16 2 -22 5 -12 2 9 2 23 0 30 -3 6 -5 -1 -5 -18z"/>
<path d="M1941 1872 c-7 -13 -11 -33 -8 -45 3 -21 4 -21 12 -2 5 11 12 22 15
25 4 3 4 14 0 25 -7 19 -7 19 -19 -3z"/>
<path d="M2132 1878 c-7 -7 -12 -16 -12 -21 0 -5 7 -1 16 8 9 9 14 18 12 20
-2 3 -10 -1 -16 -7z"/>
<path d="M1453 1873 c9 -2 25 -2 35 0 9 3 1 5 -18 5 -19 0 -27 -2 -17 -5z"/>
<path d="M2905 1870 c3 -5 8 -10 11 -10 2 0 4 5 4 10 0 6 -5 10 -11 10 -5 0
-7 -4 -4 -10z"/>
<path d="M3028 1873 c6 -2 18 -2 25 0 6 3 1 5 -13 5 -14 0 -19 -2 -12 -5z"/>
<path d="M3088 1873 c12 -2 32 -2 45 0 12 2 2 4 -23 4 -25 0 -35 -2 -22 -4z"/>
<path d="M3580 1856 c0 -22 3 -27 11 -19 8 8 8 16 0 30 -9 16 -10 14 -11 -11z"/>
<path d="M1203 1820 c0 -30 2 -43 4 -27 2 15 2 39 0 55 -2 15 -4 2 -4 -28z"/>
<path d="M3195 1853 c11 -3 24 -9 30 -14 15 -15 28 -10 15 6 -7 8 -24 14 -39
14 -20 -1 -22 -2 -6 -6z"/>
<path d="M1348 1811 c-5 -53 5 -70 20 -36 10 21 9 32 -2 52 l-14 27 -4 -43z"/>
<path d="M2100 1830 c0 -8 -9 -26 -20 -40 -11 -14 -20 -35 -20 -47 0 -12 -4
-25 -10 -28 -12 -8 -13 -75 -1 -75 11 0 41 73 41 100 0 10 4 21 9 24 13 8 19
53 10 68 -7 10 -9 10 -9 -2z"/>
<path d="M1385 1820 c-3 -5 -1 -10 4 -10 6 0 11 5 11 10 0 6 -2 10 -4 10 -3 0
-8 -4 -11 -10z"/>
<path d="M3477 1804 c3 -7 9 -14 13 -14 4 0 13 -14 20 -30 7 -17 15 -28 18
-25 8 8 -28 73 -44 79 -8 3 -11 0 -7 -10z"/>
<path d="M1905 1798 c-4 -10 -4 -26 0 -35 8 -17 8 -17 12 0 3 9 3 25 0 35 -4
16 -4 16 -12 0z"/>
<path d="M3380 1801 c0 -6 5 -13 10 -16 6 -3 10 1 10 9 0 9 -4 16 -10 16 -5 0
-10 -4 -10 -9z"/>
<path d="M3291 1784 c0 -11 3 -14 6 -6 3 7 2 16 -1 19 -3 4 -6 -2 -5 -13z"/>
<path d="M3352 1770 c0 -14 2 -19 5 -12 2 6 2 18 0 25 -3 6 -5 1 -5 -13z"/>
<path d="M3418 1725 c8 -65 21 -88 21 -37 1 23 -3 42 -8 42 -5 0 -12 8 -14 18
-2 9 -2 -1 1 -23z"/>
<path d="M2183 1713 c-7 -16 -10 -38 -6 -51 3 -14 -1 -30 -12 -42 -10 -12 -13
-20 -7 -20 7 0 12 5 12 11 0 6 9 9 20 6 10 -3 21 0 23 7 3 7 10 6 22 -5 14
-14 15 -24 6 -72 -12 -69 -32 -100 -74 -120 -26 -13 -29 -17 -14 -22 29 -12
19 -20 -20 -18 -55 2 -55 2 -49 11 5 8 -57 65 -90 85 -8 4 -14 15 -14 22 0 8
-4 15 -10 15 -42 0 64 -133 117 -146 35 -9 102 2 122 20 20 18 41 21 41 6 0
-26 -56 -91 -93 -109 -39 -19 -40 -21 -14 -21 15 0 27 5 27 10 0 6 8 10 18 10
25 1 51 24 74 67 11 21 29 46 39 56 22 21 24 28 7 24 -8 -1 -14 11 -15 33 -4
54 -25 140 -35 140 -4 0 -8 6 -8 13 0 6 -9 23 -20 37 -11 14 -20 37 -20 53 0
15 -3 27 -8 27 -4 0 -13 -12 -19 -27z"/>
<path d="M3225 1720 c3 -5 8 -10 11 -10 2 0 4 5 4 10 0 6 -5 10 -11 10 -5 0
-7 -4 -4 -10z"/>
<path d="M1887 1673 c-8 -77 -8 -104 3 -121 6 -12 9 11 10 76 0 50 -2 92 -4
92 -2 0 -6 -21 -9 -47z"/>
<path d="M2620 1708 c1 -7 11 -32 23 -55 15 -28 26 -40 34 -35 10 6 5 20 -17
55 -30 48 -40 57 -40 35z"/>
<path d="M3540 1638 c0 -44 3 -59 10 -48 13 20 13 97 0 105 -6 4 -10 -17 -10
-57z"/>
<path d="M1215 1678 c-4 -10 -4 -26 0 -35 8 -17 8 -17 12 0 3 9 3 25 0 35 -4
16 -4 16 -12 0z"/>
<path d="M3060 1680 c0 -5 5 -10 10 -10 6 0 10 5 10 10 0 6 -4 10 -10 10 -5 0
-10 -4 -10 -10z"/>
<path d="M2071 1643 c-10 -19 -8 -26 9 -43 11 -11 27 -20 35 -20 13 0 13 4 3
23 -7 12 -16 24 -19 27 -3 3 -8 12 -11 20 -4 12 -7 10 -17 -7z"/>
<path d="M3100 1596 c0 -22 3 -27 11 -19 8 8 8 16 0 30 -9 16 -10 14 -11 -11z"/>
<path d="M1702 1588 c-17 -13 -34 -31 -38 -40 -3 -10 -10 -18 -15 -18 -5 0 -9
-7 -9 -16 0 -10 13 0 33 24 17 23 37 41 43 41 7 1 14 8 18 16 7 19 7 19 -32
-7z"/>
<path d="M2387 1595 c-4 -8 -2 -17 3 -20 6 -4 10 3 10 14 0 25 -6 27 -13 6z"/>
<path d="M3181 1584 c0 -11 3 -14 6 -6 3 7 2 16 -1 19 -3 4 -6 -2 -5 -13z"/>
<path d="M1101 1574 c0 -11 3 -14 6 -6 3 7 2 16 -1 19 -3 4 -6 -2 -5 -13z"/>
<path d="M1451 1574 c0 -11 3 -14 6 -6 3 7 2 16 -1 19 -3 4 -6 -2 -5 -13z"/>
<path d="M3040 1564 c0 -8 5 -12 10 -9 6 4 8 11 5 16 -9 14 -15 11 -15 -7z"/>
<path d="M1196 1552 c-4 -13 -5 -26 -2 -29 10 -11 18 4 14 29 l-4 23 -8 -23z"/>
<path d="M1991 1554 c0 -11 3 -14 6 -6 3 7 2 16 -1 19 -3 4 -6 -2 -5 -13z"/>
<path d="M2191 1552 c-7 -13 -11 -26 -8 -28 8 -8 29 25 25 38 -3 8 -9 4 -17
-10z"/>
<path d="M3230 1541 c0 -11 -3 -28 -6 -38 -6 -16 -5 -16 9 2 18 22 22 55 7 55
-5 0 -10 -9 -10 -19z"/>
<path d="M2872 1510 c0 -14 2 -19 5 -12 2 6 2 18 0 25 -3 6 -5 1 -5 -13z"/>
<path d="M3062 1510 c0 -14 2 -19 5 -12 2 6 2 18 0 25 -3 6 -5 1 -5 -13z"/>
<path d="M2150 1510 c-8 -6 -36 -10 -62 -10 -27 0 -48 -4 -48 -10 0 -15 93
-11 114 5 22 17 18 29 -4 15z"/>
<path d="M1040 1499 c0 -5 5 -7 10 -4 6 3 10 8 10 11 0 2 -4 4 -10 4 -5 0 -10
-5 -10 -11z"/>
<path d="M2582 1485 c0 -16 2 -22 5 -12 2 9 2 23 0 30 -3 6 -5 -1 -5 -18z"/>
<path d="M1617 1486 c-4 -10 -5 -21 -2 -24 9 -9 17 6 13 25 -3 17 -4 17 -11
-1z"/>
<path d="M2891 1474 c0 -11 3 -14 6 -6 3 7 2 16 -1 19 -3 4 -6 -2 -5 -13z"/>
<path d="M1156 1465 c-3 -8 -1 -15 4 -15 6 0 10 7 10 15 0 8 -2 15 -4 15 -2 0
-6 -7 -10 -15z"/>
<path d="M3190 1465 c-11 -13 -10 -14 4 -9 9 3 16 10 16 15 0 13 -6 11 -20 -6z"/>
<path d="M2330 1454 c0 -8 5 -12 10 -9 6 4 8 11 5 16 -9 14 -15 11 -15 -7z"/>
<path d="M984 1446 c-17 -19 -27 -56 -15 -56 8 0 41 54 41 67 0 7 -16 1 -26
-11z"/>
<path d="M2540 1438 c0 -26 16 -55 25 -47 8 8 -6 69 -16 69 -5 0 -9 -10 -9
-22z"/>
<path d="M1521 1423 c0 -25 1 -26 9 -8 12 27 12 35 0 35 -5 0 -10 -12 -9 -27z"/>
<path d="M2811 1434 c0 -11 3 -14 6 -6 3 7 2 16 -1 19 -3 4 -6 -2 -5 -13z"/>
<path d="M1195 1420 c-3 -5 -1 -10 4 -10 6 0 11 5 11 10 0 6 -2 10 -4 10 -3 0
-8 -4 -11 -10z"/>
<path d="M1391 1394 c0 -11 3 -14 6 -6 3 7 2 16 -1 19 -3 4 -6 -2 -5 -13z"/>
<path d="M1580 1314 c0 -54 3 -94 7 -91 10 10 12 177 2 183 -5 3 -9 -39 -9
-92z"/>
<path d="M1081 1374 c-12 -14 -21 -27 -19 -29 5 -5 19 6 42 33 26 30 7 27 -23
-4z"/>
<path d="M1163 1386 c-16 -19 -4 -29 13 -11 8 7 14 16 14 19 0 10 -15 6 -27
-8z"/>
<path d="M1642 1370 c0 -14 2 -19 5 -12 2 6 2 18 0 25 -3 6 -5 1 -5 -13z"/>
<path d="M1371 1354 c0 -11 3 -14 6 -6 3 7 2 16 -1 19 -3 4 -6 -2 -5 -13z"/>
<path d="M1120 1323 c0 -10 4 -14 8 -8 4 6 11 13 16 18 5 4 2 7 -7 7 -10 0
-17 -8 -17 -17z"/>
<path d="M2058 1333 c7 -3 16 -2 19 1 4 3 -2 6 -13 5 -11 0 -14 -3 -6 -6z"/>
<path d="M1350 1236 c0 -49 3 -87 6 -84 8 9 11 147 2 161 -4 7 -8 -28 -8 -77z"/>
<path d="M2480 1289 c0 -13 29 -43 36 -36 7 6 -18 47 -28 47 -5 0 -8 -5 -8
-11z"/>
<path d="M959 1268 c-2 -37 2 -70 11 -92 6 -15 9 0 9 47 1 38 -3 67 -9 67 -5
0 -10 -10 -11 -22z"/>
<path d="M1020 1269 c0 -11 5 -17 10 -14 6 3 10 13 10 21 0 8 -4 14 -10 14 -5
0 -10 -9 -10 -21z"/>
<path d="M1392 1260 c0 -19 2 -27 5 -17 2 9 2 25 0 35 -3 9 -5 1 -5 -18z"/>
<path d="M1643 1250 c0 -25 2 -35 4 -22 2 12 2 32 0 45 -2 12 -4 2 -4 -23z"/>
<path d="M2068 1273 c6 -2 18 -2 25 0 6 3 1 5 -13 5 -14 0 -19 -2 -12 -5z"/>
<path d="M1222 1230 c0 -19 2 -27 5 -17 2 9 2 25 0 35 -3 9 -5 1 -5 -18z"/>
<path d="M1272 1205 c0 -16 2 -22 5 -12 2 9 2 23 0 30 -3 6 -5 -1 -5 -18z"/>
<path d="M2290 1199 c0 -5 5 -7 10 -4 6 3 10 8 10 11 0 2 -4 4 -10 4 -5 0 -10
-5 -10 -11z"/>
<path d="M1601 1168 c0 -21 -5 -38 -10 -38 -5 0 -11 -7 -15 -15 -3 -9 0 -15 9
-15 15 0 30 56 22 87 -3 10 -5 1 -6 -19z"/>
<path d="M1060 1151 c0 -23 5 -41 10 -41 6 0 10 15 10 34 0 19 -4 38 -10 41
-6 4 -10 -10 -10 -34z"/>
<path d="M1020 1141 c0 -25 6 -27 13 -6 4 8 2 17 -3 20 -6 4 -10 -3 -10 -14z"/>
<path d="M1221 1098 c5 -17 13 -36 19 -42 17 -17 11 -86 -10 -116 -24 -34 -11
-47 21 -21 19 15 24 30 27 87 2 48 0 65 -7 54 -5 -8 -11 -12 -13 -10 -16 26
-28 52 -28 65 0 8 -4 15 -9 15 -6 0 -6 -12 0 -32z"/>
<path d="M1847 1055 c-13 -130 -14 -134 -16 -45 -1 47 -5 91 -10 99 -14 22
-63 -33 -81 -89 -16 -52 -40 -91 -86 -140 -18 -19 -45 -61 -60 -93 -22 -50
-25 -67 -20 -110 4 -28 16 -63 27 -78 32 -45 21 -81 -13 -41 -40 44 -52 86
-52 175 1 93 6 109 62 190 18 27 32 56 30 65 -2 9 -12 -3 -27 -31 -13 -25 -31
-54 -40 -64 -20 -21 -47 -77 -56 -116 -11 -42 -23 -41 -30 1 -4 25 0 55 10 86
15 45 15 49 -1 60 -15 12 -13 17 30 60 43 44 58 76 36 76 -5 0 -10 -6 -10 -12
0 -18 -39 -52 -82 -72 -21 -10 -40 -26 -43 -37 -4 -10 -11 -19 -17 -19 -6 0
-8 -3 -5 -6 4 -4 13 -1 22 6 21 17 32 4 14 -17 -36 -46 -43 -70 -45 -159 -3
-136 -38 -184 -134 -184 -47 0 -54 19 -15 44 41 27 58 72 51 132 -11 93 -26
108 -20 19 6 -77 5 -81 -23 -114 -20 -23 -35 -32 -45 -28 -18 6 -14 47 4 47 7
0 6 5 -1 14 -9 10 -8 16 3 26 9 6 20 9 26 5 15 -9 12 8 -5 31 -8 10 -15 38
-15 62 0 24 -5 42 -11 42 -7 0 -10 12 -7 30 4 26 1 30 -19 30 -28 0 -28 -3 -2
-39 28 -38 24 -105 -7 -109 -12 -2 -32 -14 -45 -28 -27 -29 -39 -31 -39 -6 0
19 28 54 57 71 16 9 17 11 2 26 -12 12 -21 13 -40 6 -23 -9 -23 -10 -2 -10 21
-1 45 -21 25 -21 -16 0 -53 -43 -68 -78 -13 -32 -13 -33 25 -57 21 -14 44 -37
51 -50 7 -14 19 -25 26 -25 14 0 84 -75 84 -90 0 -6 7 -10 15 -10 8 0 29 -9
47 -20 18 -11 41 -20 52 -20 12 0 16 -5 13 -14 -8 -20 72 -33 101 -17 11 6 30
11 42 11 12 0 38 16 58 36 31 31 40 35 62 27 14 -4 31 -21 38 -36 18 -38 33
-25 20 19 -16 61 8 153 55 210 98 119 133 238 118 394 l-7 65 -7 -80z m-50
-133 c-6 -29 -15 -52 -19 -52 -4 0 -8 -11 -8 -25 0 -29 8 -32 26 -7 12 16 13
15 14 -6 0 -23 -39 -87 -78 -128 -11 -11 -22 -30 -26 -41 -9 -28 -46 -62 -46
-42 0 13 44 85 59 99 3 3 16 25 29 50 l24 45 -24 -26 c-13 -15 -30 -35 -38
-45 -61 -78 -70 -86 -70 -65 0 23 30 92 45 103 5 4 7 10 4 13 -7 6 -48 -45
-72 -90 l-16 -30 -1 31 c0 67 13 94 77 162 35 37 71 80 80 96 8 16 20 35 27
41 18 20 25 -24 13 -83z m25 -54 c-9 -9 -12 -4 -11 23 0 32 1 33 11 11 8 -17
8 -26 0 -34z m-391 -123 c7 -33 18 -67 24 -75 7 -8 20 -32 30 -53 22 -46 13
-73 -37 -110 -44 -33 -72 -40 -124 -32 -54 8 -57 20 -6 29 81 13 146 123 106
180 -9 13 -14 43 -13 81 1 66 1 66 20 -20z m-241 -26 c0 -14 -41 -48 -57 -49
-18 0 -16 20 4 42 18 20 53 25 53 7z m-20 -83 c0 -8 -7 -17 -16 -20 -23 -9
-24 -8 -24 14 0 13 7 20 20 20 11 0 20 -6 20 -14z m380 -95 c10 -24 9 -33 -5
-54 -30 -46 -110 -72 -134 -43 -9 11 -4 17 23 30 36 17 71 54 81 87 8 24 19
18 35 -20z"/>
<path d="M1520 1107 c0 -8 -18 -35 -41 -61 -47 -53 -43 -62 5 -13 41 40 60 74
46 82 -5 3 -10 0 -10 -8z"/>
<path d="M1392 1070 c0 -14 2 -19 5 -12 2 6 2 18 0 25 -3 6 -5 1 -5 -13z"/>
<path d="M1135 1050 c-3 -5 -1 -10 4 -10 6 0 11 5 11 10 0 6 -2 10 -4 10 -3 0
-8 -4 -11 -10z"/>
<path d="M1642 1035 c0 -16 2 -22 5 -12 2 9 2 23 0 30 -3 6 -5 -1 -5 -18z"/>
<path d="M1080 1030 c0 -5 5 -10 10 -10 6 0 10 5 10 10 0 6 -4 10 -10 10 -5 0
-10 -4 -10 -10z"/>
<path d="M1351 994 c0 -11 3 -14 6 -6 3 7 2 16 -1 19 -3 4 -6 -2 -5 -13z"/>
<path d="M1290 909 c0 -5 5 -7 10 -4 6 3 10 8 10 11 0 2 -4 4 -10 4 -5 0 -10
-5 -10 -11z"/>
<path d="M1270 859 c0 -11 4 -18 10 -14 5 3 7 12 3 20 -7 21 -13 19 -13 -6z"/>
<path d="M2250 835 c0 -8 5 -15 10 -15 6 0 10 7 10 15 0 8 -4 15 -10 15 -5 0
-10 -7 -10 -15z"/>
<path d="M1911 404 c11 -13 74 -25 94 -18 7 3 15 11 18 17 3 8 -15 12 -59 12
-46 0 -60 -3 -53 -11z"/>
</g>
</svg>
